<svg width="500" height="500" viewBox="0 0 500 500" fill="none" xmlns="http://www.w3.org/2000/svg">
<g clip-path="url(#clip0_905_1629)">
<path fill-rule="evenodd" clip-rule="evenodd" d="M576.242 497.583C576.242 497.583 568.341 476.145 546.662 448.271C536.812 435.599 524.116 421.657 507.979 407.666C497.718 398.771 486.085 389.857 472.899 381.24C456.351 370.421 437.408 359.96 415.549 350.986C343.546 320.981 258.357 279.234 184.467 223.963C134.426 186.53 89.5916 142.91 57.4205 92.7551C53.2254 86.2106 50.1626 80.3203 47.443 73.7361C44.9894 67.8262 42.8106 61.3612 40.3055 53.3292C39.9366 52.2088 40.4256 50.9493 41.4036 50.5228C42.3731 50.1064 43.4624 50.6719 43.8227 51.8023C46.4565 59.5863 48.7212 65.8529 51.2434 71.5645C53.9887 77.772 57.0347 83.3151 61.1869 89.453C93.9585 138.001 139.152 179.639 189.228 215.247C263.444 268.009 348.453 307.395 420.267 335.349C443.139 344.392 463.111 354.764 480.329 366.088C494.167 375.181 506.263 384.808 516.79 394.537C533.355 409.877 546.095 425.366 555.738 439.426C577.142 470.642 583.473 494.558 583.473 494.558C584.194 496.859 583.164 499.408 581.165 500.25C579.176 501.083 576.962 499.884 576.242 497.583Z" fill="#244F3C" fill-opacity="0.07"/>
<path fill-rule="evenodd" clip-rule="evenodd" d="M75.7711 118.754C75.7711 118.754 74.0297 117.783 71.2072 115.938C69.9118 115.086 68.4016 114.093 66.7716 112.873C63.0655 110.107 58.7077 106.438 53.6461 103.473C48.6274 100.538 43.1539 97.9898 37.4746 96.9485C36.8227 96.8891 36.3424 96.2248 36.3939 95.4713C36.4454 94.7176 37.02 94.1626 37.6721 94.222C45.3846 94.3213 53.1229 96.8596 59.8745 100.062C62.5597 101.342 65.073 102.7 67.3293 104.128C69.0537 105.218 70.6669 106.279 72.0225 107.41C73.4294 108.59 74.5702 109.78 75.5139 110.831C77.6501 113.192 78.6965 114.778 78.6965 114.778C79.6488 115.71 79.7606 117.356 78.9541 118.457C78.1477 119.557 76.7233 119.686 75.7711 118.754Z" fill="#244F3C" fill-opacity="0.07"/>
<path fill-rule="evenodd" clip-rule="evenodd" d="M131.535 179.091C131.535 179.091 129.922 179.566 127.083 179.864C125.822 179.992 124.338 180.092 122.665 179.992C121.051 179.884 119.293 179.537 117.431 179.12C114.995 178.584 112.413 177.801 109.745 176.819C103.07 174.37 96.0531 170.643 90.3734 164.95C89.8501 164.495 89.7385 163.642 90.1331 163.037C90.5191 162.432 91.2655 162.303 91.7888 162.749C96.481 166.18 101.818 168.233 107.034 169.641C112.318 171.058 117.465 171.386 121.661 171.922C123.505 172.159 125.136 172.486 126.533 172.764C129.596 173.369 131.398 173.874 131.398 173.874C132.642 173.825 133.68 174.956 133.723 176.394C133.766 177.831 132.779 179.041 131.535 179.091Z" fill="#244F3C" fill-opacity="0.07"/>
<path fill-rule="evenodd" clip-rule="evenodd" d="M98.0159 142.373C98.0159 142.373 97.4063 140.867 96.7032 138.14C96.3857 136.92 96.0421 135.493 95.8277 133.837C95.6217 132.24 95.5711 130.465 95.5281 128.572C95.4766 126.073 95.5533 123.395 95.7163 120.639C96.1451 113.042 97.2771 105.04 99.765 98.9818C99.9972 98.2777 100.675 97.9209 101.293 98.1787C101.902 98.4464 102.211 99.2394 101.988 99.9435C101.112 103.612 100.873 107.847 100.898 112.23C100.924 117.099 101.421 122.026 101.902 126.478C102.134 128.67 102.442 130.713 102.58 132.567C102.665 133.856 102.666 135.026 102.657 136.088C102.631 139.429 102.46 141.422 102.46 141.422C102.683 142.84 101.876 144.198 100.649 144.465C99.4223 144.724 98.2387 143.781 98.0159 142.373Z" fill="#244F3C" fill-opacity="0.07"/>
<path fill-rule="evenodd" clip-rule="evenodd" d="M230.864 255.327C230.864 255.327 226.043 255.842 218.236 256.635C214.598 257.002 210.334 257.449 205.599 257.855C194.661 258.807 181.278 259.839 167.817 262.446C153.524 265.223 139.138 269.378 127.479 275.943C126.904 276.289 126.192 276.031 125.883 275.367C125.583 274.702 125.806 273.87 126.381 273.523C140.751 264.132 159.624 258.104 177.4 254.305C184.032 252.897 190.5 251.767 196.531 250.964C201.121 250.359 205.436 249.853 209.373 249.635C213.423 249.407 217.051 249.426 220.122 249.486C226.857 249.626 230.899 250.111 230.899 250.111C232.15 250.121 233.154 251.301 233.137 252.739C233.129 254.176 232.107 255.337 230.864 255.327Z" fill="#244F3C" fill-opacity="0.07"/>
<path fill-rule="evenodd" clip-rule="evenodd" d="M165.844 292.551C164.566 286.185 165.964 278.688 168.151 271.896C169.078 269.03 170.142 266.343 171.248 263.943C171.78 262.793 172.286 261.693 172.869 260.74C173.479 259.759 174.114 258.925 174.723 258.212C176.644 255.931 178 254.841 178 254.841C178.78 253.731 180.188 253.562 181.148 254.463C182.109 255.366 182.255 256.992 181.475 258.103C181.475 258.103 181.028 259.521 180.051 261.841C179.604 262.882 179.115 264.111 178.429 265.411C177.417 267.315 176.043 269.317 174.791 271.589C173.118 274.643 171.428 277.915 170.202 281.366C168.907 285.004 168.006 288.663 168.117 292.203C168.194 292.928 167.757 293.592 167.13 293.69C166.504 293.79 165.929 293.275 165.844 292.551Z" fill="#244F3C" fill-opacity="0.07"/>
<path fill-rule="evenodd" clip-rule="evenodd" d="M224.525 347.733C237.848 333.087 257.065 322.983 275.681 316.18C283.892 313.185 291.964 310.816 299.359 309.03C302.98 308.158 306.437 307.385 309.671 306.85C313.034 306.285 316.157 305.926 318.937 305.679C327.567 304.906 332.955 305.094 332.955 305.094C334.19 305.015 335.245 306.106 335.313 307.524C335.391 308.951 334.447 310.171 333.212 310.261C333.212 310.261 326.881 311.321 317.023 313.394C315.324 313.751 313.523 314.118 311.627 314.495C309.903 314.821 308.101 315.149 306.231 315.497C294.495 317.658 280.263 320.811 266.278 325.987C251.497 331.461 236.99 338.987 226.06 349.696C225.588 350.192 224.867 350.142 224.439 349.596C224.018 349.052 224.061 348.219 224.525 347.733Z" fill="#244F3C" fill-opacity="0.07"/>
<path fill-rule="evenodd" clip-rule="evenodd" d="M281.063 356.161C279.828 349.459 282.453 339.84 286.022 330.956C287.369 327.575 288.845 324.331 290.329 321.426C291.032 320.038 291.71 318.7 292.448 317.54C293.211 316.34 293.992 315.308 294.713 314.406C296.995 311.59 298.599 310.122 298.599 310.122C299.371 309.002 300.777 308.814 301.747 309.696C302.708 310.589 302.871 312.214 302.107 313.335C302.107 313.335 301.43 315.12 300.091 317.976C299.482 319.285 298.779 320.812 297.861 322.427C296.506 324.838 294.738 327.396 293.074 330.232C290.792 334.109 288.467 338.264 286.683 342.409C284.607 347.238 283.139 351.889 283.328 355.815C283.414 356.539 282.977 357.203 282.35 357.303C281.724 357.402 281.149 356.885 281.063 356.161Z" fill="#244F3C" fill-opacity="0.07"/>
<path fill-rule="evenodd" clip-rule="evenodd" d="M370.447 416.697C382.467 396.24 398.844 384.312 414.896 377.43C422.891 373.999 430.81 371.827 438.067 370.538C441.653 369.904 445.077 369.437 448.276 369.249C451.596 369.051 454.659 369.11 457.388 369.27C465.803 369.765 471.028 371.183 471.028 371.183C472.255 371.381 473.104 372.689 472.923 374.108C472.752 375.516 471.62 376.498 470.402 376.3C470.402 376.3 465.357 376.042 457.378 376.498C454.779 376.636 451.862 376.884 448.697 377.153C444.725 377.489 440.349 377.856 435.734 378.62C429.703 379.621 423.243 381.119 416.681 383.489C401.023 389.131 384.792 399.454 372.3 418.245C371.932 418.839 371.211 418.968 370.706 418.541C370.191 418.115 370.07 417.283 370.447 416.697Z" fill="#244F3C" fill-opacity="0.07"/>
<path fill-rule="evenodd" clip-rule="evenodd" d="M169.908 111.645C165.817 122.483 165.293 136.742 166.237 151.061C167.068 163.773 169.214 176.475 171.186 186.897C171.495 188.543 171.796 190.119 172.053 191.646C172.345 193.312 172.594 194.909 172.825 196.416C174.138 205.162 175.038 210.775 175.038 210.775C175.399 212.133 174.738 213.581 173.554 213.997C172.379 214.413 171.126 213.65 170.766 212.282C170.766 212.282 168.758 206.868 166.502 198.142C166.116 196.634 165.739 195.028 165.388 193.332C165.07 191.776 164.778 190.149 164.512 188.463C162.771 177.664 161.381 164.427 161.278 151.308C161.167 136.276 162.839 121.432 167.841 110.495C168.115 109.84 168.802 109.563 169.376 109.88C169.943 110.197 170.183 110.99 169.908 111.645Z" fill="#244F3C" fill-opacity="0.07"/>
<path fill-rule="evenodd" clip-rule="evenodd" d="M273.16 185.645C270.278 199.548 272.38 214.798 276.429 229.236C280.221 242.732 285.858 255.413 290.867 265.637C291.656 267.253 292.42 268.801 293.141 270.307C293.93 271.944 294.668 273.521 295.362 275.017C299.36 283.624 302.149 289.068 302.149 289.068C302.887 290.209 302.672 291.836 301.685 292.678C300.69 293.53 299.292 293.292 298.554 292.142C298.554 292.142 294.745 287.264 289.813 278.905C288.963 277.468 288.096 275.91 287.229 274.244C286.441 272.727 285.669 271.112 284.897 269.425C279.955 258.667 274.868 245.071 271.676 230.842C268.219 215.422 267.078 199.26 270.947 184.942C271.119 184.237 271.744 183.82 272.354 184.018C272.963 184.208 273.323 184.942 273.16 185.645Z" fill="#244F3C" fill-opacity="0.07"/>
<path fill-rule="evenodd" clip-rule="evenodd" d="M370.024 228.94C368.575 243.685 370.428 258.598 373.627 272.392C376.862 286.333 381.623 299.036 385.878 309.2C386.564 310.846 387.234 312.422 387.86 313.939C388.547 315.616 389.182 317.212 389.782 318.719C393.265 327.535 395.71 332.959 395.71 332.959C396.396 334.148 396.113 335.745 395.083 336.538C394.063 337.331 392.673 337.004 391.987 335.814C391.987 335.814 389.095 331.768 385.243 324.55C384.008 322.229 382.687 319.592 381.383 316.637C380.139 313.801 378.955 310.658 377.763 307.316C375.352 300.563 373.019 292.927 371.088 284.756C366.988 267.374 364.74 247.582 367.759 228.554C367.845 227.83 368.429 227.333 369.055 227.433C369.682 227.542 370.119 228.216 370.024 228.94Z" fill="#244F3C" fill-opacity="0.07"/>
<path fill-rule="evenodd" clip-rule="evenodd" d="M409.797 262.436C401.398 269.061 396.208 276.794 392.879 284.182C391.387 287.504 390.331 290.757 389.507 293.781C388.856 296.161 388.444 298.411 388.006 300.434C387.664 302.07 387.294 303.548 387.011 304.877C386.145 309.012 385.776 311.57 385.776 311.57C385.853 312.988 384.909 314.218 383.682 314.307C382.447 314.396 381.383 313.305 381.314 311.887C381.314 311.887 380.689 308.883 380.826 303.905C380.86 302.339 381.006 300.593 381.324 298.709C381.633 296.915 382.147 295.03 382.765 293.067C383.983 289.22 385.708 285.075 388.118 280.91C392.45 273.473 398.893 265.966 408.622 260.156C409.171 259.789 409.874 259.987 410.192 260.622C410.518 261.247 410.337 262.06 409.797 262.436Z" fill="#244F3C" fill-opacity="0.07"/>
<path fill-rule="evenodd" clip-rule="evenodd" d="M36.3881 0.0702934C44.0578 -0.534579 49.9862 2.80657 54.3357 8.45866C57.1153 12.0581 59.1568 16.699 60.5553 21.9049C61.9107 26.962 62.5973 32.5945 62.6659 38.3953C62.8118 51.286 59.8859 65.0095 54.9787 75.5105L53.8806 77.9302L51.5815 77.256C39.5538 73.4383 30.5806 57.7211 26.6085 41.2011C23.6831 29.0144 23.4082 16.5602 26.1791 8.78608C28.1351 3.29265 31.5067 -0.0486979 36.3881 0.0702934ZM50.7321 69.6998C41.4154 65.5748 34.621 52.7735 31.0007 39.6844C27.9637 28.7174 27.1489 17.4228 29.4052 10.2338C30.6663 6.23764 32.8879 3.58025 36.3881 3.49101C41.5527 3.91739 45.4303 6.37636 48.4073 10.0056C51.3327 13.5753 53.2032 18.4147 54.4043 23.9081C55.3908 28.4298 55.8627 33.3779 55.9228 38.4946C56.0258 49.1542 54.2753 60.4879 50.7321 69.6998Z" fill="#244F3C" fill-opacity="0.07"/>
<path fill-rule="evenodd" clip-rule="evenodd" d="M1.29735 81.3606C2.9102 74.2707 7.60258 70.6015 13.6422 69.5702C16.8936 69.015 20.5656 69.392 24.3575 70.4926C27.9521 71.5337 31.658 73.2985 35.2011 75.6485C43.0766 80.8742 50.1286 88.9757 54.0063 98.0786L55.4562 101.371L52.5307 102.838C43.7545 106.973 26.0131 109.195 13.771 105.248C7.44829 103.215 2.57552 99.5661 0.765359 94.0429C-0.367063 90.6121 -0.3927 86.4177 1.29735 81.3606ZM46.9286 97.9297C38.4268 101.261 24.7693 103.076 14.8177 100.478C6.66769 98.3365 1.09157 93.0908 4.08562 82.5105C5.6813 78.4946 8.56374 76.6208 12.021 76.0159C15.1781 75.4606 18.7985 76.1646 22.6075 77.5925C25.6531 78.7229 28.7757 80.3686 31.8384 82.4112C37.6635 86.2884 43.2225 91.6133 46.9286 97.9297Z" fill="#244F3C" fill-opacity="0.07"/>
<path fill-rule="evenodd" clip-rule="evenodd" d="M39.6631 142.324L41.37 141.868C47.5984 139.894 54.7878 138.476 62.1142 138.605C66.8498 138.694 71.6198 139.458 76.1839 140.955C87.388 144.654 97.3391 152.834 102.916 167.361L104.048 170.218L101.552 171.466C92.7753 175.681 78.3287 179.171 65.2544 174.392C55.0625 170.663 45.6167 162.016 40.4265 144.723L39.6631 142.324ZM44.0987 146.042C50.7387 144.852 58.2793 144.703 65.7172 145.814C70.7703 146.568 75.7979 147.877 80.4476 150.266C86.9677 153.618 92.7668 158.923 96.7904 167.094C88.829 170.644 77.2304 173.232 66.4466 169.751C57.6018 166.885 49.3576 159.894 44.0987 146.042Z" fill="#244F3C" fill-opacity="0.07"/>
<path fill-rule="evenodd" clip-rule="evenodd" d="M79.3887 276.2L80.5297 275.069C85.5141 269.666 91.4935 265.114 98.0911 261.931C102.406 259.839 106.987 258.361 111.629 257.528C123.476 255.396 135.744 257.469 146.004 264.301L148.612 265.986L146.896 268.802C142.298 276.091 129.962 289.834 115.266 293.404C104.31 296.062 92.017 293.286 80.7271 277.956L79.3887 276.2ZM84.4076 277.478C89.0745 273.532 94.4787 270.478 100.167 268.177C104.182 266.552 108.343 265.342 112.564 264.598C122.103 262.923 131.943 263.696 140.591 268.148C135.624 275.198 125.878 285.382 114.331 288.645C104.997 291.282 94.5218 289.289 84.4076 277.478Z" fill="#244F3C" fill-opacity="0.07"/>
<path fill-rule="evenodd" clip-rule="evenodd" d="M140.894 329.627V327.792C140.775 325.094 141.075 314.941 143.94 304.113C145.262 299.095 147.226 293.988 149.732 289.397C154.175 281.246 160.497 274.82 168.999 273.174L170.801 272.788L171.779 274.593C177.132 284.916 177.441 300.275 171.101 312.174C166.083 321.594 156.972 328.942 142.98 329.497L140.894 329.627ZM168.175 279.847C172.036 288.316 172.105 300.146 167.447 309.685C163.526 317.747 156.26 324.153 145.107 325.818C145.622 321.961 147.106 314.385 149.645 306.324C151.043 301.891 152.7 297.271 154.904 293.116C158.096 287.087 162.307 281.91 168.175 279.847Z" fill="#244F3C" fill-opacity="0.07"/>
<path fill-rule="evenodd" clip-rule="evenodd" d="M181.926 375.486L183.178 373.751C187.794 366.78 193.061 358.55 199.17 351.391C203.288 346.562 207.808 342.267 212.45 338.885C221.57 332.242 231.366 329.327 241.138 333.522L243.935 334.672L242.657 337.775C238.745 346.828 229.41 369.516 214.131 378.381C205.852 383.181 195.849 384.122 184.036 376.755L181.926 375.486ZM187.673 374.931C192.341 369.011 197.737 362.486 203.381 356.398C207.363 352.104 211.446 347.999 215.718 344.806C222.342 339.848 229.316 336.873 236.488 338.47C232.508 348.464 224.804 366.472 212.305 374.326C205.553 378.569 197.393 379.729 187.673 374.931Z" fill="#244F3C" fill-opacity="0.07"/>
<path fill-rule="evenodd" clip-rule="evenodd" d="M214.503 267.818L216.167 268.106C221.855 268.83 229.91 271.517 238.352 275.91C242.865 278.261 247.472 281.116 251.889 284.339C264.183 293.332 274.907 305.172 278.622 316.843L279.823 320.492L276.469 321.028C258.754 323.606 244.778 319.649 234.621 312.342C220.362 302.069 213.559 285.201 214.391 270.317L214.503 267.818ZM217.359 273.144C223.382 274.879 231.43 279.074 239.716 284.358C244.753 287.562 249.908 291.131 254.644 295.088C262.048 301.265 268.534 308.187 272.068 315.416C257.433 317.269 245.644 314.116 236.808 308.157C224.42 299.807 217.823 286.025 217.359 273.144Z" fill="#244F3C" fill-opacity="0.07"/>
<path fill-rule="evenodd" clip-rule="evenodd" d="M340.191 459.802L340.62 457.422C341.297 452.415 342.129 447.387 343.193 442.489C344.3 437.412 345.595 432.464 347.165 427.863C349.55 420.852 352.51 414.615 355.744 409.588C363.525 397.49 373.245 392.325 384.037 399.524L386.568 401.169L384.896 403.906C382.605 407.555 381.712 413.961 380.22 421.011C378.299 430.104 375.579 440.179 369.041 447.774C363.568 454.14 355.418 458.86 342.678 459.604L340.191 459.802ZM345.132 455.866C346.067 451.939 347.131 448.052 348.255 444.214C349.645 439.474 351.206 434.893 352.818 430.55C355.178 424.184 357.709 418.373 360.609 413.703C365.79 405.373 371.941 400.614 379.173 403.598C377.655 407.813 376.754 413.554 375.613 419.801C374.086 428.15 371.984 437.491 366.237 444.65C361.792 450.173 355.195 454.358 345.132 455.866Z" fill="#244F3C" fill-opacity="0.07"/>
<path fill-rule="evenodd" clip-rule="evenodd" d="M342.686 353.572L344.642 354.296C349.695 355.882 357.373 354.336 365.764 353.563C369.445 353.215 373.253 353.007 377.019 353.166C380.957 353.333 384.843 353.949 388.523 355.109C398.123 358.144 406.368 365.044 410.305 380.067L411.25 383.538L408.135 384.043C388.472 386.87 372.669 386.741 361.603 383.211C348.528 379.047 341.769 370.32 342.566 356.418L342.686 353.572ZM345.56 359.432C350.811 360.83 358.163 360.484 366.055 360.296C369.564 360.206 373.176 360.156 376.754 360.355C380.245 360.543 383.702 360.93 386.979 361.882C394.125 363.974 400.38 368.644 404.103 378.511C386.773 381.377 372.704 381.634 362.59 378.798C352.226 375.893 346.212 369.656 345.56 359.432Z" fill="#244F3C" fill-opacity="0.07"/>
<path fill-rule="evenodd" clip-rule="evenodd" d="M256.372 392.732V390.897C256.252 388.2 256.561 378.045 259.418 367.218C260.747 362.2 262.712 357.093 265.217 352.502C269.661 344.352 275.983 337.916 284.477 336.279L286.287 335.893L287.265 337.697C292.61 348.019 292.927 363.37 286.587 375.279C281.568 384.699 272.458 392.037 258.465 392.603L256.372 392.732ZM283.653 342.953C287.513 351.421 287.582 363.251 282.933 372.79C279.004 380.852 271.737 387.248 260.584 388.913C261.099 385.066 262.583 377.48 265.123 369.429C266.521 364.986 268.177 360.376 270.381 356.221C273.581 350.192 277.794 345.016 283.653 342.953Z" fill="#244F3C" fill-opacity="0.07"/>
<path fill-rule="evenodd" clip-rule="evenodd" d="M112.994 57.3943C118.845 59.0898 121.943 64.2958 122.825 71.1576C123.289 74.7273 122.998 78.7932 122.114 83.0472C121.29 86.9937 119.884 91.1087 117.979 95.1146C113.981 103.543 107.786 111.486 100.503 116.989L98.0923 118.864L96.3938 116.147C89.9681 105.328 89.1704 92.0011 91.6497 80.6771C93.3912 72.7741 96.6682 65.8926 100.546 61.609C104.407 57.3451 108.833 55.5599 112.994 57.3943ZM99.5418 109.156C95.1841 100.707 94.5839 90.6325 96.1111 81.847C97.5783 73.4086 100.941 66.081 105.084 62.4915C107.272 60.5975 109.649 59.7445 112.025 60.6171C115.284 62.3424 116.778 65.5155 117.258 69.3727C117.687 72.8334 117.112 76.8096 115.954 81.0735C115.036 84.4251 113.715 87.9058 112.068 91.3666C108.987 97.8417 104.741 104.247 99.5418 109.156Z" fill="#244F3C" fill-opacity="0.07"/>
<path fill-rule="evenodd" clip-rule="evenodd" d="M174.616 47.1396L175.44 47.8144C183.298 53.7244 187.931 62.5195 189.75 72.3065C190.942 78.7222 190.847 85.5743 189.801 92.2081C187.005 109.918 177.147 126.101 164.991 130.841L162.623 131.802L161.722 129.095C157.398 115.53 155.288 100.478 156.6 86.4366C157.991 71.6718 163.111 58.0275 173.321 48.3992L174.616 47.1396ZM173.938 52.3657C179.755 57.9584 182.741 65.5244 183.907 73.586C184.731 79.2381 184.645 85.1576 183.761 90.9485C181.6 105.148 174.839 118.634 165.582 124.048C161.799 112.159 159.852 99.1589 160.684 86.873C161.568 73.784 165.582 61.5181 173.938 52.3657Z" fill="#244F3C" fill-opacity="0.07"/>
<path fill-rule="evenodd" clip-rule="evenodd" d="M196.038 124.038L196.45 125.397C199.101 132.725 199.993 139.061 199.418 144.435C198.878 149.462 197.051 153.657 194.468 157.009C188.815 164.366 179.026 167.698 168.354 167.47H165.771V164.486C166.021 151.367 168.706 142.819 172.523 137.107C178.529 128.104 187.348 126.041 194.237 124.495L196.038 124.038ZM192.992 128.371C194.245 134.232 194.262 139.17 193.551 143.354C192.941 146.924 191.698 149.89 189.861 152.319C185.675 157.871 178.743 160.717 170.928 161.361C171.082 151.456 172.952 144.663 175.827 139.913C180.356 132.417 187.219 130.027 192.992 128.371Z" fill="#244F3C" fill-opacity="0.07"/>
<path fill-rule="evenodd" clip-rule="evenodd" d="M261.829 110.899L262.773 111.305C271.772 114.766 278.369 122.451 282.436 132.14C285 138.227 286.494 145.129 287.069 152.109C288.664 171.327 283.002 191.188 272.304 199.35L270.219 200.976L268.752 198.625C260.156 184.436 253.704 165.576 252.907 147.558C252.349 134.787 254.597 122.451 260.86 112.496L261.829 110.899ZM262.335 116.155C269.319 119.923 274.002 126.884 277.048 135.005C279.115 140.528 280.42 146.606 280.968 152.804C282.316 168.263 279.115 184.436 271.368 192.587C263.682 179.736 257.882 163.226 256.775 147.271C256.004 136.125 257.513 125.258 262.335 116.155Z" fill="#244F3C" fill-opacity="0.07"/>
<path fill-rule="evenodd" clip-rule="evenodd" d="M226.949 203.495L228.091 203.197C235.855 200.709 243.009 200.45 249.487 202.394C254.231 203.823 258.597 206.459 262.535 210.108C270.488 217.476 276.681 229.207 281.1 244.517L282.464 249.039L278.338 248.553C265.254 246.767 249.203 244.834 238.634 234.76C232.182 228.611 227.645 219.509 227.07 205.567L226.949 203.495ZM230.21 207.481C236.712 206.32 242.555 206.935 247.857 208.909C251.777 210.367 255.371 212.617 258.683 215.671C265.118 221.611 270.479 230.486 274.622 242.077C263.162 240.957 250.156 239.281 241.079 231.21C235.46 226.232 231.419 218.775 230.21 207.481Z" fill="#244F3C" fill-opacity="0.07"/>
<path fill-rule="evenodd" clip-rule="evenodd" d="M306.465 178.051L306.869 179.419C309.648 187.302 310.138 194.987 308.817 201.948C307.838 207.104 305.813 211.834 303.18 215.95C296.376 226.569 285.207 233.055 274.543 232.866H271.944V229.861C272.167 216.207 275.778 205.557 280.763 197.576C287.994 185.993 298.066 180.024 304.655 178.507L306.465 178.051ZM303.437 182.473C304.784 188.879 304.406 194.848 303.067 200.282C302.038 204.477 300.391 208.325 298.229 211.746C293.108 219.846 285.241 225.509 277.16 226.649C277.46 215.781 280.257 207.055 284.142 200.282C289.762 190.505 297.578 184.734 303.437 182.473Z" fill="#244F3C" fill-opacity="0.07"/>
<path fill-rule="evenodd" clip-rule="evenodd" d="M364.473 146.489L366.369 147.312C375.472 150.863 382.866 160.222 387.491 172.012C390.218 178.953 391.917 186.758 392.604 194.482C394.62 217.289 387.439 239.431 369.998 242.564L368.9 242.773L368.017 241.979C359.944 234.553 356.211 225.687 355.062 215.91C352.703 195.851 361.633 171.804 364.19 149.285L364.473 146.489ZM366.824 152.676C373.618 156.841 378.611 165.131 382.008 174.749C384.282 181.165 385.852 188.206 386.513 195.225C388.28 213.947 384.024 232.788 370.229 236.476C361.393 228.216 358.837 217.666 358.991 206.044C359.214 189.366 364.799 170.575 366.824 152.676Z" fill="#244F3C" fill-opacity="0.07"/>
<path fill-rule="evenodd" clip-rule="evenodd" d="M440.937 221.632L441.228 222.574C444.025 230.566 443.82 238.003 441.683 244.587C440.706 247.602 439.298 250.437 437.532 253.015C429.287 265.024 413.793 271.786 401.723 271.617H400.024L399.329 269.822C395.409 259.282 398.386 248.82 404.957 240.313C413.596 229.118 428.352 221.384 439.332 221.632H440.937ZM437.677 225.151C439.178 231.964 438.192 237.943 435.858 243.159C434.142 246.966 431.672 250.347 428.712 253.282C421.643 260.293 411.906 264.786 403.464 265.45C401.131 257.775 403.627 250.12 408.285 243.615C415.501 233.561 427.82 226.104 437.677 225.151Z" fill="#244F3C" fill-opacity="0.07"/>
</g>
<defs>
<clipPath id="clip0_905_1629">
<rect width="500" height="500" fill="white"/>
</clipPath>
</defs>
</svg>
